# xmcd CD database file
#
# Track frame offsets:
#	150
#	20250
#	36940
#	54715
#	80287
#	98722
#	116032
#	138592
#	156767
#	176900
#	195052
#	211315
#	231222
#	248975
#	262712
#	273090
#	291512
#
# Disc length: 4114 seconds
#
# Revision: 0
# Processed by: cddbd v1.5PL3 Copyright (c) Steve Scherf et al.
# Submitted via: CDex 1.51
#
DISCID=e9101011
DTITLE=Various Artist - Love Ring II Endless Love
DYEAR=1900
DGENRE=New Age
TTITLE0=ENDLESS LOVE - DIANA ROSS and LIONEL RICHIE
TTITLE1=LOVIN' YOU - MINNIE RIPERTON
TTITLE2=I'LL MAKE LOVE TO YOU - BOYZ ii MEN
TTITLE3=ORDINARY WORLD - DURAN DURAN
TTITLE4=A SONG FOR YOU - LEON RUSSELL
TTITLE5=WHAT'S GOING ON - MARVIN GAYE
TTITLE6=BECAUSE I LOVE YOU(THE POSTMAN SONG) - STEVIE B
TTITLE7=YOUR SONG - ELTON JOHN
TTITLE8=WUTHERING HEIGHTS - KATE BUSH
TTITLE9=HOW DEEP IS YOUR LOVE - THE BEE GEES
TTITLE10=ALFIE - VANESSA WILLIAMS
TTITLE11=HOLD ON - WILSON PHILLIPS
TTITLE12=MODERN LOVE - DAVID BOWIE
TTITLE13=OH,PRETTY WOMAN - ROY ORBISON
TTITLE14=CAROLINE,NO - THE BEACH BOYS
TTITLE15=TIME TO SAY GOODBYE (Can Te Partiro)/ SARAH BRIGHTMAN
TTITLE16=LONG AND WINDING ROAD - PAUL McCARTNEY
EXTD=
EXTT0=
EXTT1=
EXTT2=
EXTT3=
EXTT4=
EXTT5=
EXTT6=
EXTT7=
EXTT8=
EXTT9=
EXTT10=
EXTT11=
EXTT12=
EXTT13=
EXTT14=
EXTT15=
EXTT16=
PLAYORDER=
